<?xml version="1.0" encoding="utf-8"?>
<!-- Generator: Adobe Illustrator 14.0.0, SVG Export Plug-In  -->
<!DOCTYPE svg PUBLIC "-//W3C//DTD SVG 1.1//EN" "http://www.w3.org/Graphics/SVG/1.1/DTD/svg11.dtd" [
	<!ENTITY ns_flows "http://ns.adobe.com/Flows/1.0/">
]>
<svg version="1.1"
	 xmlns="http://www.w3.org/2000/svg" xmlns:xlink="http://www.w3.org/1999/xlink" xmlns:a="http://ns.adobe.com/AdobeSVGViewerExtensions/3.0/"
	 x="0px" y="0px" width="800px" height="720px" viewBox="125.385 41.606 800 720" enable-background="new 125.385 41.606 800 720"
	 xml:space="preserve">
<defs>
</defs>
<rect x="125.885" y="42.106" display="none" fill="#2B0D17" width="898.46" height="761.96"/>
<rect x="125.885" y="42.106" display="none" fill="none" stroke="#7385A8" width="898.46" height="761.96"/>
<rect x="156.775" y="52.996" display="none" fill="#1F1F26" width="800" height="720"/>
<rect x="156.775" y="52.996" display="none" fill="none" stroke="#7385A8" width="800" height="720"/>
<polygon display="none" fill="#7385A8" points="372.111,528.945 322.902,528.945 322.902,421.774 413.831,264.243 456.451,288.844 
	372.111,434.956 "/>
<polygon display="none" fill="#7385A8" points="368.817,440.664 326.196,416.063 522.771,75.509 634.534,269.12 634.534,377.19 
	585.322,377.19 585.322,282.304 522.771,173.946 "/>
<path display="none" fill="#7385A8" d="M915.927,756.606H473.868l155.555-209.595L266.462,756.606h-136.84l108.503-187.972
	c1.968-3.646,5.204-7.281,10.402-10.322l189.642-110.937c96.335-56.353,194.604-113.833,202.354-118.372l21.364-12.488
	l87.444,151.497L613.289,651.324L794.685,546.57L915.927,756.606L915.927,756.606z M614.592,707.396h216.11l-54.027-93.595
	L614.592,707.396L614.592,707.396z M214.85,707.396h38.426l433.065-250.081l-42.333-73.336
	c-75.725,44.296-325.43,190.367-366.087,214.15L214.85,707.396L214.85,707.396z"/>
<polygon display="none" fill="#7385A8" points="423.081,499.1 335.445,449.81 335.201,407.057 598.104,255.239 622.712,297.856 
	397.2,428.084 447.202,456.208 "/>
<polyline display="none" fill="none" stroke="#000000" stroke-width="55" points="697.812,433.611 719.313,470.86 267.779,731.607 
	181.774,731.607 267.779,582.611 525.795,433.615 439.794,284.611 353.788,433.611 "/>
<polyline display="none" fill="none" stroke="#000000" stroke-width="55" points="439.794,284.611 525.799,135.615 697.812,433.611 
	"/>
<polyline display="none" fill="none" stroke="#000000" stroke-width="55" points="783.82,582.611 525.795,731.607 461.293,619.86 
	525.795,731.607 869.826,731.607 783.82,582.611 697.815,632.278 "/>
<line display="none" fill="none" stroke="#000000" stroke-width="60" x1="678.704" y1="193.608" x2="372.896" y2="193.608"/>
<line display="none" fill="none" stroke="#000000" stroke-width="60" x1="678.704" y1="573.608" x2="372.896" y2="573.608"/>
<line display="none" fill="none" stroke="#000000" stroke-width="40" stroke-linejoin="bevel" x1="583.138" y1="292.938" x2="525.385" y2="292.943"/>
<polyline display="none" fill="none" stroke="#000000" stroke-width="40" points="525.8,491.607 439.798,417.11 372.899,359.16 "/>
<line display="none" fill="none" stroke="#000000" stroke-width="40" x1="525.8" y1="491.607" x2="678.704" y2="359.163"/>
<line display="none" fill="none" stroke="#000000" stroke-width="40" x1="611.803" y1="417.11" x2="525.8" y2="491.607"/>
<line display="none" fill="none" stroke="#000000" stroke-width="40" x1="525.8" y1="491.607" x2="678.7" y2="359.161"/>
<polyline display="none" fill="none" stroke="#000000" stroke-width="40" stroke-linejoin="bevel" points="468.462,292.938 
	372.896,359.163 525.8,491.607 "/>
<polyline display="none" fill="none" stroke="#000000" stroke-width="40" stroke-linejoin="bevel" points="372.896,359.163 
	678.704,359.163 525.8,491.607 678.704,359.163 678.704,359.163 525.8,491.607 "/>
<polyline display="none" fill="none" stroke="#000000" stroke-width="40" stroke-linejoin="bevel" points="468.462,359.163 
	525.8,491.607 583.138,359.16 "/>
<polyline display="none" fill="none" stroke="#000000" stroke-width="40" points="420.679,326.05 468.462,292.938 526.215,292.943 
	"/>
<polyline display="none" fill="none" stroke="#000000" stroke-width="40" points="525.385,292.943 583.138,292.938 630.921,326.05 
	"/>
<polyline display="none" fill="none" stroke="#000000" stroke-width="40" stroke-linejoin="bevel" points="630.921,326.05 
	583.138,292.938 678.704,359.163 602.254,425.383 "/>
<polyline display="none" fill="none" stroke="#000000" stroke-width="40" points="602.254,425.383 525.8,491.607 449.346,425.383 
	"/>
<polyline display="none" fill="none" stroke="#000000" stroke-width="40" stroke-linejoin="bevel" points="468.462,292.938 
	525.8,359.163 583.138,292.938 "/>
<line display="none" fill="none" stroke="#5C293D" stroke-width="40" x1="608.43" y1="252.525" x2="422.543" y2="252.525"/>
<line display="none" fill="none" stroke="#5C293D" stroke-width="40" x1="608.43" y1="483.51" x2="422.543" y2="483.51"/>
<polygon display="none" fill="none" stroke="#5C293D" stroke-width="10" stroke-linejoin="bevel" points="515.486,353.159 
	515.486,373.276 515.486,433.666 585.194,373.285 585.194,353.157 "/>
<polyline display="none" fill="none" stroke="#5C293D" stroke-width="10" stroke-linejoin="bevel" points="515.486,353.159 
	550.334,363.219 585.194,373.285 "/>
<line display="none" fill="none" stroke="#5C293D" stroke-width="10" stroke-linejoin="bevel" x1="585.194" y1="353.157" x2="515.486" y2="373.276"/>
<polyline display="none" fill="none" stroke="#5C293D" stroke-width="10" stroke-linejoin="bevel" points="550.334,363.219 
	596.818,363.216 596.818,345.113 "/>
<rect y="6.716" display="none" fill="#141921" width="1027.447" height="862.458"/>
<polygon display="none" fill="none" stroke="#5C293D" stroke-width="20" points="515.486,433.666 596.818,363.216 596.818,345.113 
	550.338,312.904 480.633,312.904 434.154,345.113 434.163,363.222 "/>
<polyline display="none" fill="none" stroke="#5C293D" stroke-width="20" stroke-linejoin="bevel" points="550.338,312.904 
	515.501,354.166 480.633,312.904 "/>
<polyline display="none" fill="none" stroke="#5C293D" stroke-width="20" stroke-linejoin="bevel" points="480.633,354.168 
	515.486,433.666 550.338,354.166 "/>
<line display="none" fill="none" stroke="#5C293D" stroke-width="30" x1="596.818" y1="354.166" x2="434.154" y2="354.168"/>
<rect x="332.36" y="204.967" transform="matrix(0.7071 -0.7071 0.7071 0.7071 -109.3884 444.248)" display="none" fill="none" stroke="#B0A3B8" stroke-width="12" width="298.402" height="298.402"/>
<line display="none" fill="none" stroke="#B0A3B8" stroke-width="12" x1="481.556" y1="565.17" x2="481.556" y2="143.165"/>
<line display="none" fill="none" stroke="#B0A3B8" stroke-width="12" x1="692.561" y1="354.167" x2="270.552" y2="354.167"/>
<rect x="270.552" y="143.163" display="none" fill="none" stroke="#B0A3B8" stroke-width="12" width="422.009" height="422.008"/>
<rect x="376.054" y="248.665" display="none" fill="none" stroke="#B0A3B8" stroke-width="12" width="211.004" height="211.004"/>
<rect x="406.955" y="279.562" transform="matrix(-0.7071 -0.7071 0.7071 -0.7071 571.6365 945.1038)" display="none" fill="none" stroke="#B0A3B8" stroke-width="12" width="149.201" height="149.2"/>
<rect x="428.805" y="301.417" display="none" fill="none" stroke="#B0A3B8" stroke-width="12" width="105.502" height="105.502"/>
<polygon display="none" fill="none" stroke="#B0A3B8" stroke-width="12" points="428.805,406.918 270.552,354.167 428.805,301.417 
	481.556,143.165 534.307,301.417 692.561,354.167 534.307,406.918 481.556,565.17 "/>
<line display="none" fill="none" stroke="#B0A3B8" stroke-width="12" x1="376.054" y1="319" x2="270.552" y2="143.165"/>
<line display="none" fill="none" stroke="#B0A3B8" stroke-width="12" x1="446.389" y1="459.668" x2="270.552" y2="565.17"/>
<polyline display="none" fill="none" stroke="#B0A3B8" stroke-width="12" points="516.723,459.668 692.561,565.17 481.556,354.167 
	270.552,565.17 376.054,389.335 "/>
<line display="none" fill="none" stroke="#B0A3B8" stroke-width="12" x1="587.058" y1="389.335" x2="692.561" y2="565.17"/>
<polyline display="none" fill="none" stroke="#B0A3B8" stroke-width="12" points="587.058,319 692.561,143.165 481.556,354.167 
	270.552,143.165 446.389,248.665 "/>
<line display="none" fill="none" stroke="#B0A3B8" stroke-width="12" x1="516.723" y1="248.665" x2="692.561" y2="143.165"/>
<rect x="349.679" y="275.04" display="none" fill="none" stroke="#B0A3B8" stroke-width="12" width="263.754" height="158.254"/>
<rect x="402.43" y="222.29" display="none" fill="none" stroke="#B0A3B8" stroke-width="12" width="158.252" height="263.756"/>
<polygon display="none" fill="none" stroke="#B0A3B8" stroke-width="12" points="349.679,433.293 270.552,433.293 349.679,565.17 
	"/>
<polygon display="none" fill="none" stroke="#B0A3B8" stroke-width="12" points="349.679,275.04 349.679,143.165 270.552,275.04 "/>
<polygon display="none" fill="none" stroke="#B0A3B8" stroke-width="12" points="402.43,486.045 270.552,486.045 402.43,565.17 "/>
<polygon display="none" fill="none" stroke="#B0A3B8" stroke-width="12" points="402.43,222.29 270.552,222.29 402.43,143.165 "/>
<polygon display="none" fill="none" stroke="#B0A3B8" stroke-width="12" points="560.682,222.29 692.561,222.29 560.682,143.165 "/>
<polygon display="none" fill="none" stroke="#B0A3B8" stroke-width="12" points="613.433,275.04 613.433,143.165 692.561,275.04 "/>
<polygon display="none" fill="none" stroke="#B0A3B8" stroke-width="12" points="613.433,433.293 613.433,565.17 692.561,433.293 
	"/>
<polygon display="none" fill="none" stroke="#B0A3B8" stroke-width="12" points="560.682,486.045 560.682,565.17 692.561,486.045 
	"/>
<polygon display="none" fill="none" stroke="#295E8C" stroke-width="30" points="481.561,209.102 349.679,354.162 402.43,459.663 
	481.556,459.668 560.682,459.663 613.433,354.168 534.308,267.126 481.561,209.102 550.363,285.361 481.556,285.361 
	412.749,285.361 "/>
<polyline display="none" fill="none" stroke="#295E8C" stroke-width="30" points="516.258,247.271 481.561,209.102 447.119,247.271 
	"/>
<line display="none" fill="none" stroke="#295E8C" stroke-width="30" x1="613.433" y1="354.168" x2="349.679" y2="354.162"/>
<polygon display="none" fill="none" stroke="#295E8C" stroke-width="30" points="481.556,499.232 613.433,354.168 560.682,248.666 
	402.43,248.662 349.679,354.162 "/>
<polygon display="none" fill="none" stroke="#D43B63" stroke-width="30" points="481.556,499.232 613.433,354.168 550.636,285.09 
	481.561,275.04 412.476,285.087 349.679,354.162 "/>
<polyline display="none" fill="none" stroke="#D43B63" stroke-width="30" points="582.033,319.628 534.303,336.036 481.553,336.898 
	428.803,336.036 381.073,319.629 "/>
<polyline display="none" fill="none" stroke="#D43B63" stroke-width="30" stroke-linejoin="bevel" points="428.805,336.036 
	481.556,499.232 534.303,336.036 "/>
<polygon display="none" fill="none" stroke="#D43B63" stroke-width="20" points="412.476,285.087 550.636,285.09 587.057,325.154 
	587.058,383.181 481.556,499.232 376.055,383.181 376.054,325.154 "/>
<line display="none" fill="none" stroke="#D43B63" stroke-width="20" x1="587.057" y1="325.154" x2="376.054" y2="325.154"/>
<polygon display="none" fill="none" stroke="#D43B63" stroke-width="20" points="481.556,248.662 516.723,195.915 446.389,195.915 
	"/>
<polyline display="none" fill="none" stroke="#D43B63" stroke-width="20" stroke-linejoin="bevel" points="481.561,383.181 
	534.307,325.154 587.058,383.181 481.561,383.181 376.055,383.181 428.805,325.154 481.561,383.181 "/>
<line display="none" fill="none" stroke="#D43B63" stroke-width="20" stroke-linejoin="bevel" x1="421.612" y1="433.293" x2="541.5" y2="433.293"/>
<polygon display="none" fill="none" stroke="#D43B63" stroke-width="20" points="481.556,499.232 587.058,383.181 376.055,383.181 
	"/>
<polygon display="none" fill="none" stroke="#D43B63" stroke-width="20" points="587.057,325.154 550.636,285.09 412.476,285.087 
	376.054,325.154 "/>
<polygon display="none" fill="none" stroke="#D43B63" stroke-width="20" points="446.389,195.915 516.723,195.915 481.556,248.662 
	"/>
<line display="none" fill="none" stroke="#D43B63" stroke-width="20" x1="376.055" y1="354.163" x2="587.057" y2="354.163"/>
<rect x="270.552" y="143.164" display="none" fill="none" stroke="#D43B63" stroke-width="30" width="422.009" height="422.006"/>
<rect x="125.385" y="41.606" display="none" fill="#4A2E4F" width="800" height="720"/>
<rect x="89.998" y="10" display="none" fill="#1D1730" stroke="#4A2E4F" stroke-width="20" width="883.456" height="783.212"/>
<polygon display="none" fill="none" stroke="#3D5759" stroke-width="15" points="525.384,632.385 694.822,632.385 694.822,184.014 
	355.947,184.014 355.947,632.385 "/>
<polygon display="none" fill="none" stroke="#8785A8" stroke-width="23" points="456.305,339.12 594.465,339.123 630.886,379.187 
	630.887,437.213 525.385,553.264 419.884,437.213 419.883,379.187 "/>
<line display="none" fill="none" stroke="#8785A8" stroke-width="23" x1="630.886" y1="379.187" x2="419.883" y2="379.187"/>
<polygon display="none" fill="none" stroke="#8785A8" stroke-width="23" points="525.385,302.694 560.552,249.947 490.218,249.947 
	"/>
<polyline display="none" fill="none" stroke="#8785A8" stroke-width="23" stroke-linejoin="bevel" points="525.39,437.213 
	578.136,379.187 630.887,437.213 525.39,437.213 419.884,437.213 472.634,379.187 525.39,437.213 "/>
<line display="none" fill="none" stroke="#8785A8" stroke-width="23" stroke-linejoin="bevel" x1="465.44" y1="487.327" x2="585.329" y2="487.327"/>
<polygon display="none" fill="none" stroke="#8785A8" stroke-width="23" points="594.465,339.123 630.886,379.187 630.887,437.213 
	525.385,553.264 419.884,437.213 419.883,379.187 456.305,339.12 490.218,339.123 525.385,379.187 560.552,339.12 "/>
<polygon display="none" fill="none" stroke="#8785A8" stroke-width="23" points="525.385,302.694 560.552,249.947 490.218,249.947 
	"/>
<polyline display="none" fill="none" stroke="#8785A8" stroke-width="23" points="419.884,437.213 472.634,379.187 525.39,437.213 
	"/>
<polyline display="none" fill="none" stroke="#8785A8" stroke-width="23" points="630.887,437.213 578.136,379.187 525.39,437.213 
	472.634,379.187 "/>
<line display="none" fill="none" stroke="#8785A8" stroke-width="23" x1="419.884" y1="437.213" x2="472.634" y2="379.187"/>
<line display="none" fill="none" stroke="#8785A8" stroke-width="23" x1="525.39" y1="437.213" x2="472.634" y2="379.187"/>
<polyline display="none" fill="none" stroke="#8785A8" stroke-width="23" points="446.259,466.227 472.631,437.213 525.387,495.24 
	578.136,437.213 604.512,466.227 "/>
<polyline display="none" fill="none" stroke="#383838" stroke-width="23" points="465.439,487.325 525.385,553.264 630.887,437.213 
	630.886,379.187 594.465,339.123 456.305,339.12 419.883,379.187 419.884,437.213 525.39,437.213 "/>
<line display="none" fill="none" stroke="#383838" stroke-width="23" x1="419.883" y1="379.187" x2="630.886" y2="379.187"/>
<polyline display="none" fill="none" stroke="#383838" stroke-width="23" stroke-linejoin="bevel" points="525.39,437.213 
	472.634,379.187 525.39,437.213 630.887,437.213 578.136,379.187 525.39,437.213 "/>
<polyline display="none" fill="none" stroke="#383838" stroke-width="23" points="525.385,553.264 465.44,487.327 585.329,487.327 
	"/>
<line display="none" fill="none" stroke="#383838" stroke-width="23" x1="419.884" y1="437.213" x2="472.634" y2="379.187"/>
<polygon display="none" fill="none" stroke="#8785A8" stroke-width="20" points="525.385,326.44 560.552,273.693 490.218,273.693 
	"/>
<polyline display="none" fill="none" stroke="#8785A8" stroke-width="20" points="578.136,379.187 472.634,379.187 419.884,437.213 
	525.385,553.264 630.887,437.213 578.136,379.187 472.634,379.187 "/>
<polyline display="none" fill="none" stroke="#8785A8" stroke-width="20" points="446.259,408.2 472.634,437.213 499.009,408.2 
	525.385,437.213 551.761,408.2 578.136,437.213 604.511,408.2 "/>
<line display="none" fill="none" stroke="#8785A8" stroke-width="20" x1="472.634" y1="437.213" x2="499.009" y2="408.2"/>
<polyline display="none" fill="none" stroke="#8785A8" stroke-width="20" points="446.259,466.225 472.634,495.239 499.009,466.225 
	525.385,495.239 551.761,466.225 578.136,495.239 604.511,466.225 "/>
<polygon display="none" fill="none" stroke="#4A2E4F" stroke-width="20" points="525.385,553.264 578.433,494.913 630.887,437.213 
	578.136,379.187 472.634,379.187 419.884,437.213 "/>
<polyline display="none" fill="none" stroke="#4A2E4F" stroke-width="20" points="446.261,466.225 499.009,408.2 472.634,379.187 
	525.39,437.213 578.136,379.187 "/>
<line display="none" fill="none" stroke="#4A2E4F" stroke-width="20" x1="604.512" y1="466.225" x2="551.763" y2="408.2"/>
<polyline display="none" fill="none" stroke="#4A2E4F" stroke-width="20" points="604.511,408.2 578.13,437.22 525.385,495.239 
	472.637,437.22 446.259,408.2 "/>
<line display="none" fill="none" stroke="#4A2E4F" stroke-width="20" x1="472.634" y1="495.238" x2="499.007" y2="466.225"/>
<line display="none" fill="none" stroke="#4A2E4F" stroke-width="20" x1="551.763" y1="466.227" x2="578.433" y2="494.913"/>
<polygon display="none" fill="none" stroke="#4A2E4F" stroke-width="20" points="525.385,553.264 578.433,494.913 630.887,437.213 
	578.136,379.187 472.634,379.187 419.884,437.213 "/>
<polyline display="none" fill="none" stroke="#4A2E4F" stroke-width="20" points="499.009,408.2 472.634,379.187 525.39,437.213 
	578.136,379.187 "/>
<polyline display="none" fill="none" stroke="#4A2E4F" stroke-width="20" points="604.511,408.2 578.13,437.22 551.762,466.225 
	525.39,437.213 499.011,466.229 472.637,437.22 446.259,408.2 "/>
<polyline display="none" fill="none" stroke="#4A2E4F" stroke-width="20" points="604.511,408.2 551.763,466.227 525.385,494.913 
	499.007,466.225 446.259,408.2 "/>
<polygon display="none" fill="none" stroke="#8785A8" stroke-width="20" points="525.385,553.264 578.433,494.913 630.887,437.213 
	578.136,379.187 472.634,379.187 419.884,437.213 "/>
<polyline display="none" fill="none" stroke="#8785A8" stroke-width="20" points="499.009,408.2 472.634,379.187 525.39,437.213 
	578.136,379.187 "/>
<polyline display="none" fill="none" stroke="#8785A8" stroke-width="20" points="604.511,408.2 578.13,437.22 551.762,466.225 
	525.39,437.213 499.011,466.229 472.637,437.22 446.259,408.2 "/>
<polyline display="none" fill="none" stroke="#8785A8" stroke-width="20" points="578.433,494.913 551.763,466.227 525.39,437.213 
	499.007,466.225 472.634,495.238 "/>
<polyline display="none" fill="none" stroke="#8785A8" stroke-width="20" points="525.385,495.237 499.007,524.249 525.385,495.237 
	551.763,524.249 525.385,495.237 "/>
<polygon display="none" fill="none" stroke="#4A2E4F" stroke-width="20" points="525.385,553.264 578.433,494.913 630.887,437.213 
	578.136,379.187 472.634,379.187 419.884,437.213 "/>
<line display="none" fill="none" stroke="#4A2E4F" stroke-width="20" x1="604.512" y1="466.225" x2="551.763" y2="408.2"/>
<polyline display="none" fill="none" stroke="#4A2E4F" stroke-width="20" points="499.007,466.225 472.634,495.238 578.136,379.187 
	525.39,437.213 472.634,379.187 499.009,408.2 446.261,466.225 "/>
<line display="none" fill="none" stroke="#4A2E4F" stroke-width="20" x1="578.433" y1="494.913" x2="472.634" y2="379.187"/>
<polyline display="none" fill="none" stroke="#4A2E4F" stroke-width="20" points="551.763,524.249 525.385,495.237 499.007,524.249 
	"/>
<polygon display="none" fill="none" stroke="#B0B8BF" stroke-width="20" points="525.385,553.264 578.433,494.913 630.887,437.213 
	578.136,379.187 472.634,379.187 419.884,437.213 "/>
<polyline display="none" fill="none" stroke="#B0B8BF" stroke-width="20" points="499.009,408.2 472.634,379.187 525.39,437.213 
	578.136,379.187 "/>
<line display="none" fill="none" stroke="#B0B8BF" stroke-width="20" x1="446.259" y1="466.225" x2="472.637" y2="437.22"/>
<line display="none" fill="none" stroke="#B0B8BF" stroke-width="20" x1="604.511" y1="466.227" x2="578.13" y2="437.22"/>
<polyline display="none" fill="none" stroke="#B0B8BF" stroke-width="20" points="604.511,408.2 578.13,437.22 525.385,495.239 
	472.637,437.22 446.259,408.2 "/>
<polygon display="none" fill="none" stroke="#B0B8BF" stroke-width="20" points="490.218,273.693 560.552,273.693 525.385,326.44 
	"/>
<polygon display="none" fill="none" stroke="#8785A8" stroke-width="20" points="525.385,553.264 578.433,494.913 630.887,437.213 
	578.136,379.187 472.634,379.187 419.884,437.213 "/>
<polyline display="none" fill="none" stroke="#8785A8" stroke-width="20" points="578.136,379.187 525.39,437.213 499.009,408.2 
	499.009,408.2 "/>
<polyline display="none" fill="none" stroke="#8785A8" stroke-width="20" points="551.763,524.249 525.385,495.237 499.007,524.249 
	"/>
<polyline display="none" fill="none" stroke="#8785A8" stroke-width="20" points="525.385,495.237 525.39,437.213 472.634,379.187 
	"/>
<polygon display="none" fill="none" stroke="#8785A8" stroke-width="20" points="490.218,273.693 560.552,273.693 525.385,326.44 
	"/>
<polygon display="none" fill="none" stroke="#4A2E4F" stroke-width="20" points="525.385,553.264 630.886,553.264 630.887,437.213 
	419.884,437.213 419.884,553.264 "/>
<circle display="none" fill="none" stroke="#4A2E4F" stroke-width="20" cx="525.683" cy="437.213" r="116.051"/>
<line display="none" fill="none" stroke="#4A2E4F" stroke-width="20" x1="465.44" y1="487.327" x2="585.329" y2="487.327"/>
<polyline display="none" fill="none" stroke="#4A2E4F" stroke-width="20" points="419.884,437.213 452.253,401.606 419.884,437.213 
	452.253,472.82 "/>
<path display="none" fill="none" stroke="#4A2E4F" stroke-width="20" d="M419.884,437.213l32.37,35.606L419.884,437.213z"/>
<path display="none" fill="none" stroke="#4A2E4F" stroke-width="20" d="M630.887,437.213l-32.37-35.607L630.887,437.213z"/>
<polyline display="none" fill="none" stroke="#4A2E4F" stroke-width="20" points="598.517,472.82 630.887,437.213 598.517,401.606 
	"/>
<line display="none" fill="none" stroke="#4A2E4F" stroke-width="20" x1="419.884" y1="437.213" x2="630.887" y2="437.213"/>
<rect x="578.136" y="379.187" display="none" fill="none" stroke="#4A2E4F" stroke-width="20" width="52.751" height="58.026"/>
<rect x="419.884" y="379.187" display="none" fill="none" stroke="#4A2E4F" stroke-width="20" width="52.75" height="58.026"/>
<line display="none" fill="none" stroke="#4A2E4F" stroke-width="20" x1="472.634" y1="408.2" x2="578.136" y2="408.2"/>
<path fill-rule="evenodd" clip-rule="evenodd" fill="none" stroke="#4A2E4F" stroke-width="10" d="M516.315,408.2
	c0-5.006,4.063-9.069,9.069-9.069s9.069,4.063,9.069,9.069s-4.063,9.069-9.069,9.069S516.315,413.206,516.315,408.2z
	 M525.385,384.62c-13.022,0-23.58,10.557-23.58,23.58c0,13.022,10.558,23.58,23.58,23.58s23.58-10.558,23.58-23.58
	C548.965,395.177,538.407,384.62,525.385,384.62z M464.296,425.541c1.378,4.896,3.337,9.541,5.803,13.855l-10.884,11.899
	c-3.117,3.121-3.117,8.162,0,11.283l11.79,11.79c3.121,3.118,8.163,3.118,11.284,0l11.899-10.883
	c4.314,2.466,8.959,4.425,13.855,5.803l1.017,16.18c0,4.425,3.557,7.981,7.981,7.981h16.686c4.425,0,7.981-3.557,7.981-7.981
	l1.014-16.18c4.899-1.378,9.544-3.337,13.858-5.803l11.899,10.883c3.121,3.118,8.163,3.118,11.283,0l11.79-11.79
	c3.118-3.121,3.118-8.162,0-11.283l-10.883-11.899c2.466-4.314,4.425-8.959,5.803-13.855l16.18-1.017
	c4.425,0,7.981-3.557,7.981-7.981v-16.686c0-4.425-3.557-7.982-7.981-7.982l-16.18-1.013c-1.378-4.899-3.337-9.544-5.803-13.858
	l10.883-11.9c3.118-3.121,3.118-8.162,0-11.283l-11.79-11.79c-3.12-3.118-8.162-3.118-11.283,0l-11.899,10.883
	c-4.314-2.465-8.959-4.424-13.858-5.803l-1.014-16.179c0-4.425-3.557-7.981-7.981-7.981h-16.686c-4.425,0-7.981,3.557-7.981,7.981
	l-1.017,16.179c-4.896,1.378-9.541,3.337-13.855,5.803l-11.899-10.883c-3.121-3.118-8.163-3.118-11.284,0l-11.79,11.79
	c-3.117,3.121-3.117,8.162,0,11.283l10.884,11.9c-2.466,4.314-4.425,8.959-5.803,13.858l-16.18,1.013
	c-4.425,0-7.981,3.557-7.981,7.982v16.686c0,4.425,3.557,7.981,7.981,7.981L464.296,425.541z M525.385,370.109
	c21.04,0,38.091,17.05,38.091,38.09s-17.051,38.09-38.091,38.09s-38.091-17.05-38.091-38.09S504.345,370.109,525.385,370.109z"/>
<path display="none" fill-rule="evenodd" clip-rule="evenodd" fill="none" stroke="#4A2E4F" stroke-width="10" stroke-linecap="round" d="
	M563.876,491.708c0,0,13.763-21.012,23.851-47.863c10.137-26.98,8.481-36.101,6.715-40.275
	c-2.132-5.034-18.146-12.312-24.891,14.866l5.915-22.7c0,0,3.395-10.353-6.282-12.877c-9.676-2.523-12.004-4.165-20.164,23.161
	c19.306-66.101,19.306-66.101,19.306-66.101s5.133-11.751-6.156-14.696s-15.243,4.292-19.113,19.129
	c-3.869,14.837-16.755,57.638-16.755,57.638"/>
<path display="none" fill-rule="evenodd" clip-rule="evenodd" fill="none" stroke="#4A2E4F" stroke-width="10" stroke-linecap="round" stroke-linejoin="round" d="
	M544.214,340.179c0,0,3.047-11.955-7.119-13.917c-10.167-1.962-14.192,4.222-16.281,10.912
	c-2.088,6.689-25.755,84.226-25.755,84.226l-8.613-31.699c0,0-3.24-11.353-12.172-7.481s-11.147,15.005-5.93,42.547
	c5.218,27.542,12.638,45.322,12.638,45.322"/>
<circle display="none" fill="none" stroke="#4A2E4F" stroke-width="20" cx="525.385" cy="432.106" r="52.919"/>
<circle display="none" fill="none" stroke="#4A2E4F" stroke-width="20" cx="525.385" cy="432.106" r="92.983"/>
</svg>
